<svg width="27" height="33" viewBox="0 0 27 33" fill="none" xmlns="http://www.w3.org/2000/svg">
<path d="M9.40294 32.7371C9.21478 32.7371 9.02662 32.7371 8.83846 32.7371C8.6503 32.7371 8.58757 32.6744 8.3994 32.6117C7.58403 32.4235 6.89411 31.9845 6.32962 31.42C5.63969 30.7301 5.07518 29.9147 4.51069 29.2248C3.6326 28.0331 2.87995 26.7159 2.31546 25.2733C1.56281 23.4544 1.12377 21.6355 0.872884 19.7539C0.810163 19.0012 0.747438 18.2486 0.810159 17.4959C0.87288 16.5551 0.998333 15.6143 1.31194 14.6735C1.87643 12.7919 2.87995 11.1611 4.51069 10.0321C5.76511 9.15405 7.14498 8.65228 8.71301 8.58956C9.52838 8.52684 10.281 8.77772 11.0964 9.0286C11.7236 9.21677 12.3508 9.53037 12.978 9.78126C13.7307 10.0949 14.4206 10.0949 15.1733 9.78126C15.7378 9.59309 16.3023 9.34221 16.8667 9.15405C17.6194 8.90316 18.372 8.65228 19.1247 8.58956C19.9401 8.46411 20.8182 8.58956 21.6335 8.77772C23.0761 9.09132 24.3305 9.78126 25.3341 10.9102C25.585 11.1611 25.8358 11.4747 26.024 11.7256C21.0063 14.9244 21.5081 22.0119 26.8394 24.3325C26.7139 24.7089 26.6512 25.0225 26.463 25.3988C26.2749 25.9006 26.0867 26.2769 25.8986 26.7159C25.2714 28.0958 24.3933 29.2875 23.4524 30.5419C22.9507 31.1691 22.4489 31.7336 21.8217 32.1727C21.0063 32.7371 20.0028 32.988 18.9993 32.7999C18.4348 32.6744 17.8076 32.4863 17.3058 32.2981C16.5531 31.9845 15.8005 31.6709 14.9224 31.6082C13.9816 31.5454 13.1035 31.6709 12.2254 32.0472C11.5982 32.2981 11.0337 32.549 10.4065 32.7371C10.0302 32.6117 9.71655 32.6744 9.40294 32.7371Z" fill="white"/>
<path d="M20.191 0.687722C20.3791 1.87942 20.0655 3.07112 19.5638 4.13738C19.1247 5.01547 18.623 5.83085 17.8703 6.45806C16.9922 7.27343 15.9887 7.83792 14.7343 7.96336C14.4207 8.02608 14.107 8.02608 13.7934 8.02608C13.7934 7.83792 13.7934 7.7752 13.7307 7.64975C13.668 6.45805 14.0443 5.32908 14.5461 4.32554C15.0478 3.51017 15.6124 2.75752 16.365 2.13031C17.3058 1.37765 18.3721 0.875885 19.5638 0.687722C19.6892 0.687722 19.7519 0.625 19.9401 0.625C20.0655 0.687721 20.1283 0.687722 20.191 0.687722Z" fill="white"/>
</svg>
